<svg xmlns="http://www.w3.org/2000/svg" xmlns:xlink="http://www.w3.org/1999/xlink" viewBox="0 0 127.69 115.85"><defs><style>.cls-1{fill:#628409;}.cls-2{fill:#acd203;}.cls-3{fill:url(#linear-gradient);}.cls-4{fill:#325e00;}.cls-5{fill:url(#linear-gradient-2);}</style><linearGradient id="linear-gradient" x1="338.01" y1="-1395.4" x2="338.01" y2="-1320.61" gradientTransform="matrix(0.77, -0.63, 0.63, 0.77, 625.62, 1293.24)" gradientUnits="userSpaceOnUse"><stop offset="0" stop-color="#acd203"/><stop offset="0.85" stop-color="#7aa106"/></linearGradient><linearGradient id="linear-gradient-2" x1="3660.05" y1="1323.25" x2="3660.05" y2="1410.41" gradientTransform="matrix(-0.77, -0.63, -0.63, 0.77, 3798.27, 1293.24)" xlink:href="#linear-gradient"/></defs><g id="Layer_2" data-name="Layer 2"><g id="Layer_1-2" data-name="Layer 1"><path class="cls-1" d="M54,97.17A63.93,63.93,0,0,0,41.1,88.75C13.15,74,16.51,55.52,19.22,44.33,21.29,35.8,64,42,68.58,75.73,70,86.27,65.78,107.87,54,97.17Z"/><path class="cls-2" d="M4.65.06S64.74-3.16,81.13,38.11s-9.63,54-12.39,29C67.52,56,63.33,44.61,53.8,35,22.86,3.84,1.9,39.33,4.65.06Z"/><path class="cls-3" d="M4.65.06s-21,35.35,26.41,54C47.5,60.58,56,70,60,79.5c7.57,18,31.26-10,7.87-38.45S24.46,29.49,4.65.06Z"/><path class="cls-1" d="M68.36,115.85s-9.72-12.37,18.23-27.09,24.59-33.23,21.88-44.42S33.05,47.38,68.36,115.85Z"/><path class="cls-2" d="M123,.07S62.94-3.15,46.56,38.12s21.8,77.73,21.8,77.73S42.94,66.19,73.88,35,125.79,39.34,123,.07Z"/><path class="cls-4" d="M109.31,48.12S82.66,62.88,76.86,71.85C68.39,84.94,77,94.73,77,94.73s-8.64,5.12-8.64,21.12c0,0-18-27-11.57-43.75C64.35,52.47,109.31,48.12,109.31,48.12Z"/><path class="cls-5" d="M123,.07s21.06,35.34-26.4,54-28.27,61.74-28.27,61.74-31.89-46.39-8.5-74.8S103.23,29.5,123,.07Z"/></g></g></svg>