<svg xmlns="http://www.w3.org/2000/svg" viewBox="0 0 306.65 106.11"><defs><style>.cls-1{fill:none;}.cls-2{fill:#fff;}.cls-3{fill:#f58a1f;}</style></defs><title>GMS-logo</title><g id="Layer_2" data-name="Layer 2"><g id="Layer_2-2" data-name="Layer 2"><path class="cls-1" d="M91.94,11.65c-.52-.55-1.07-1.07-1.62-1.58a22.43,22.43,0,0,0-9.86-4.39,23.07,23.07,0,0,0-5.07.07A19.81,19.81,0,0,0,59.5,17.42a21.17,21.17,0,0,0,1.56,19.74,15.86,15.86,0,0,0,1.22,1.56,19.74,19.74,0,0,0,9.08,5.11,20.08,20.08,0,0,0,8.12-.21A23.08,23.08,0,0,0,94.37,32.28a.8.8,0,0,1,.08-.16c.19-.35.37-.7.53-1.06a20.38,20.38,0,0,0-.31-15.62A18.44,18.44,0,0,0,91.94,11.65Z"/><path class="cls-2" d="M143.68,97.21c4.22,1.44,9.35,3.07,15.3,4.76,1.69-1.59,3.22-3.17,4.59-4.71-11.07-2.92-19.89-5.84-25.91-8A61.1,61.1,0,0,0,143.68,97.21Z"/><path class="cls-2" d="M152.66,105.76a1.58,1.58,0,0,0,2,0c.71-.59,1.4-1.17,2.07-1.75-3.31-1-6.36-1.88-9.14-2.77C149.11,102.73,150.8,104.24,152.66,105.76Z"/><path class="cls-2" d="M135.59,85.66a294.6,294.6,0,0,0,29.83,9.43,59.63,59.63,0,0,0,3.71-5,299.91,299.91,0,0,1-36.45-11.31A43.63,43.63,0,0,0,135.59,85.66Z"/><path class="cls-2" d="M134.13,72.64h-1a1.56,1.56,0,0,0-1.55,1.81c.06.32.12.69.21,1.09a282.92,282.92,0,0,0,38.72,12.22,48,48,0,0,0,2.7-5.35c-11.61-2.71-21.34-5.61-28.73-8.06A70.81,70.81,0,0,1,134.13,72.64Z"/><path class="cls-2" d="M174.13,72.64h-.9a82.62,82.62,0,0,1-18.71,2.13c5.71,1.7,12.29,3.5,19.68,5.23a32.76,32.76,0,0,0,1.48-5.55A1.56,1.56,0,0,0,174.13,72.64Z"/><path class="cls-2" d="M99.69,1.39a1.8,1.8,0,0,0-1.8,1.88L97.28,12A25.59,25.59,0,0,0,79.54.83,26.72,26.72,0,0,0,64.47,2.27C49.4,8.45,45.71,28,56.28,39.88c.34.37.68.74,1,1.1a25.3,25.3,0,0,0,15.27,8,28.39,28.39,0,0,0,4.58.5h.58a27.35,27.35,0,0,0,18.54-8.09,41.45,41.45,0,0,1-.72,7.7C93.26,60.37,82.82,65.29,72,64.18l-.22,0a44.79,44.79,0,0,1-14.47-5.08c-.1-.06-.47-.28-.57-.32h0a1.6,1.6,0,0,0-1.64,2.75h0l.28.2a49.36,49.36,0,0,0,17.67,7.2C79,70.13,87.57,69,92.68,66.2c9.81-5.41,11-17.1,11.33-27.29.25-8.07-1.6-27.62-2.44-35.64A1.87,1.87,0,0,0,99.69,1.39ZM95,31.06c-.16.36-.34.71-.53,1.06a.8.8,0,0,0-.08.16A23.08,23.08,0,0,1,79.48,43.62a20.08,20.08,0,0,1-8.12.21,19.74,19.74,0,0,1-9.08-5.11,15.86,15.86,0,0,1-1.22-1.56A21.17,21.17,0,0,1,59.5,17.42,19.81,19.81,0,0,1,75.39,5.75a23.07,23.07,0,0,1,5.07-.07,22.43,22.43,0,0,1,9.86,4.39c.55.51,1.1,1,1.62,1.58a18.44,18.44,0,0,1,2.73,3.79A20.38,20.38,0,0,1,95,31.06Z"/><path class="cls-2" d="M185.67,11.82c-5.4-23-26.18-6.19-31.21-1.72a1.67,1.67,0,0,1-1.11.42h0a1.65,1.65,0,0,1-1.1-.42c-5-4.47-25.81-21.24-31.22,1.72-4.58,19.47,2.65,43.8,8.57,56.53,0,0,0,.05.06.08a1.61,1.61,0,0,0,3-.77,1.51,1.51,0,0,0-.08-.48v0c-5.84-17.48-11.24-50.8.14-54.63C143.18,9,149.53,24.57,152,27.54a1.63,1.63,0,0,0,1.28.59h0a1.62,1.62,0,0,0,1.28-.59c2.51-3,8.85-18.54,19.34-15,11.38,3.83,6,37.15.15,54.63,0,0,0,0,0,0a1.85,1.85,0,0,0-.08.48,1.61,1.61,0,0,0,3,.77.21.21,0,0,0,.06-.08C183,55.62,190.25,31.29,185.67,11.82Z"/><path class="cls-2" d="M227.09,32.68l-9.32-4.15C212.1,26.3,205.92,24,205.92,17.59c0-6,5.16-10.12,12.86-10.12,6.79,0,11,3.13,15.32,6.9l.07.06.13.12h0a2.15,2.15,0,0,0,1.35.49,2.21,2.21,0,0,0,2.2-2.2,2.26,2.26,0,0,0-.39-1.25h0C234.82,6.84,227,.47,219.09.47,206.42.47,197.3,8,197.3,18.09c0,9.83,7.7,14.49,14.29,17.13l9.62,4.25c6.69,2.84,11.86,4.87,11.86,12,0,6.08-5.27,10.43-14.39,10.43-7.5,0-18.14-4.66-21.14-6.61h0a1.72,1.72,0,0,0-.93-.27,1.74,1.74,0,0,0-1.74,1.74,1.76,1.76,0,0,0,.6,1.31h0c2.68,2.67,12.89,10.84,22.83,11.32,14.57.71,23.5-8.41,23.5-19C241.78,40.59,235.3,35.93,227.09,32.68Z"/><path class="cls-3" d="M306.65,29.53a1.94,1.94,0,0,0-2-1.8,2.71,2.71,0,0,0-.4,0h0Q272.57,33.25,240,36.41a27.79,27.79,0,0,1,4.8,8.53l.06.19a527.56,527.56,0,0,0,60.36-13.89h0A1.83,1.83,0,0,0,306.65,29.53Z"/><path class="cls-3" d="M229,47.59c-1.36-2-4.13-3.3-8.54-5.17l-.45-.19-8.11-3.58-2.1.16c-6.15.38-13.25.75-20.94,1.08a114.11,114.11,0,0,1-2.6,11.88c8.4-.5,17.1-1.19,26.07-2.14C215.12,49.27,225.8,48,229,47.59Z"/><path class="cls-3" d="M56.24,44.17c-.38-.36-.74-.74-1.1-1.13s-.74-.77-1.1-1.17a26.84,26.84,0,0,1-4.61-7.31q-23.72-2.78-47-6.79h0a2.58,2.58,0,0,0-.4,0,1.94,1.94,0,0,0-2,1.8,1.84,1.84,0,0,0,1.4,1.7h0A526.83,526.83,0,0,0,56.24,44.17Z"/><path class="cls-3" d="M107,39.34a71.92,71.92,0,0,1-1.07,11.39c4.9.41,9.72.76,14.43,1a114.68,114.68,0,0,1-2.6-11.91C114,39.7,110.42,39.52,107,39.34Z"/><path class="cls-3" d="M142.91,36.22v4.46c-4.52-.09-8.93-.22-13.22-.36.45,3.87,1.11,7.94,2,12l5.24.19v0q3,.09,6,.13v5.78h8.2V52.77h4.4v5.69h8.21V52.69c2,0,4-.08,6.05-.14v0l5.23-.19c.86-4.06,1.53-8.13,2-12-4.32.14-8.75.26-13.24.35V36.22h-8.21v4.59l-2.18,0-2.22,0V36.22Z"/></g></g></svg>